<svg width="20" height="20" viewBox="0 0 20 20" fill="none" xmlns="http://www.w3.org/2000/svg">
<path d="M20.0002 10C20.0002 15.5228 15.5231 20 10.0002 20C4.4774 20 0.000244141 15.5228 0.000244141 10C0.000244141 4.47715 4.4774 0 10.0002 0C15.5231 0 20.0002 4.47715 20.0002 10Z" fill="#FF4848"/>
<path d="M14.6791 12.5413L11.8718 9.73395L14.6791 6.92661C15.0236 6.58213 15.0236 6.02339 14.6791 5.6789L14.0553 5.05505C13.7108 4.71056 13.1521 4.71056 12.8076 5.05505L10.0002 7.86239L7.1929 5.05505C6.84842 4.71056 6.28968 4.71056 5.94519 5.05505L5.32134 5.6789C4.97685 6.02339 4.97685 6.58213 5.32134 6.92661L8.12868 9.73395L5.32134 12.5413C4.97685 12.8858 4.97685 13.4445 5.32134 13.789L5.94519 14.4129C6.28968 14.7573 6.84842 14.7573 7.1929 14.4129L10.0002 11.6055L12.8076 14.4129C13.1521 14.7573 13.7108 14.7573 14.0553 14.4129L14.6791 13.789C15.0236 13.4445 15.0236 12.8858 14.6791 12.5413Z" fill="white"/>
</svg>
