<svg width="20" height="20" viewBox="0 0 20 20" fill="none" xmlns="http://www.w3.org/2000/svg">
<path d="M20 10C20 15.5228 15.5228 20 10 20C4.47715 20 0 15.5228 0 10C0 4.47715 4.47715 0 10 0C15.5228 0 20 4.47715 20 10Z" fill="#62FF48"/>
<path d="M8.07573 14.8232L4.17573 10.9008C3.94142 10.6652 3.94142 10.2831 4.17573 10.0474L5.02424 9.19399C5.25854 8.95831 5.63846 8.95831 5.87277 9.19399L8.5 11.8363L14.1272 6.17674C14.3615 5.94109 14.7415 5.94109 14.9758 6.17674L15.8243 7.03015C16.0586 7.2658 16.0586 7.64789 15.8243 7.88356L8.92426 14.8233C8.68994 15.0589 8.31004 15.0589 8.07573 14.8232Z" fill="white"/>
</svg>
